<svg width="473" height="49" viewBox="0 0 473 49" fill="none" xmlns="http://www.w3.org/2000/svg">
<path d="M46.2812 48H40.125V27.1875C40.125 24.8333 40.1562 23.0417 40.2188 21.8125C40.2188 21.0625 40.1667 20.4583 40.0625 20C39.9583 19.5208 39.7292 19.0312 39.375 18.5312C39.0208 18.0312 38.4375 17.6667 37.625 17.4375C36.8125 17.1875 35.7708 17.0625 34.5 17.0625C33.1042 17.0625 31.9271 17.1562 30.9688 17.3438C30.0312 17.5104 29.2708 17.75 28.6875 18.0625C28.125 18.3542 27.6875 18.7812 27.375 19.3438C27.0625 19.9062 26.8542 20.5 26.75 21.125C26.6667 21.7292 26.625 22.5208 26.625 23.5C26.625 23.9583 26.6354 24.7812 26.6562 25.9688C26.6979 27.1354 26.7188 28.0833 26.7188 28.8125V48H20.5625V26.0625C20.5625 25.9583 20.5625 25.8125 20.5625 25.625C20.5625 24.2083 20.5521 23.1979 20.5312 22.5938C20.5104 21.9688 20.4271 21.25 20.2812 20.4375C20.1562 19.6042 19.9583 19.0417 19.6875 18.75C19.4375 18.4583 19.0417 18.1458 18.5 17.8125C17.9583 17.4792 17.3021 17.2708 16.5312 17.1875C15.7604 17.1042 14.7812 17.0625 13.5938 17.0625C12.8438 17.0625 12.125 17.1146 11.4375 17.2188C10.7708 17.3021 10.125 17.4479 9.5 17.6562C8.875 17.8646 8.36458 18.1667 7.96875 18.5625C7.57292 18.9583 7.36458 19.4271 7.34375 19.9688C7.07292 22.7396 6.9375 25.7812 6.9375 29.0938V48H0.78125V13.7188H6.40625L7 17.4688C7.83333 15.7812 9.03125 14.5833 10.5938 13.875C12.1562 13.1667 14.1354 12.8125 16.5312 12.8125C18.8854 12.8125 20.7604 13.1875 22.1562 13.9375C23.5521 14.6875 24.5729 15.9167 25.2188 17.625C26.8854 14.375 30.1771 12.75 35.0938 12.75C36.6979 12.75 38.0625 12.8438 39.1875 13.0312C40.3333 13.1979 41.3333 13.5208 42.1875 14C43.0417 14.4792 43.7188 15.0521 44.2188 15.7188C44.7396 16.3854 45.1562 17.2812 45.4688 18.4062C45.7812 19.5104 45.9896 20.7292 46.0938 22.0625C46.2188 23.3958 46.2812 25.0312 46.2812 26.9688V48ZM81 48H76.125L75.125 43.0938C74.5 45.2396 73.3646 46.6771 71.7188 47.4062C70.0938 48.1146 67.7083 48.4688 64.5625 48.4688C62.4792 48.4688 60.7708 48.2708 59.4375 47.875C58.1042 47.4583 57.0417 46.7708 56.25 45.8125C55.4583 44.8542 54.9062 43.6875 54.5938 42.3125C54.3021 40.9167 54.1562 39.125 54.1562 36.9375C54.1562 35.9583 54.3229 35.0833 54.6562 34.3125C55.0104 33.5417 55.4792 32.8854 56.0625 32.3438C56.6667 31.8021 57.4583 31.3333 58.4375 30.9375C59.4375 30.5417 60.4688 30.2292 61.5312 30C62.5938 29.7708 63.875 29.5938 65.375 29.4688C66.8958 29.3229 68.375 29.2292 69.8125 29.1875C71.25 29.1458 72.9271 29.125 74.8438 29.125V19.8438C74.8438 18.7812 74.3438 18.0521 73.3438 17.6562C72.3438 17.2396 70.5625 17.0312 68 17.0312C66.2083 17.0312 64.8646 17.0729 63.9688 17.1562C63.0729 17.2396 62.3854 17.4896 61.9062 17.9062C61.4479 18.3021 61.1771 18.6979 61.0938 19.0938C61.0312 19.4896 60.9896 20.2292 60.9688 21.3125C60.9479 21.7083 60.9375 22.0208 60.9375 22.25L56.1562 22.0625C56.1146 21.7292 56.0938 21.2396 56.0938 20.5938C56.0938 19.1979 56.2917 18.0208 56.6875 17.0625C57.1042 16.0833 57.6354 15.3229 58.2812 14.7812C58.9271 14.2188 59.8125 13.7812 60.9375 13.4688C62.0625 13.1562 63.1771 12.9583 64.2812 12.875C65.3854 12.7917 66.7604 12.75 68.4062 12.75C70.9062 12.75 72.9375 12.9479 74.5 13.3438C76.0625 13.7188 77.3438 14.4062 78.3438 15.4062C79.3438 16.4062 80.0312 17.6875 80.4062 19.25C80.8021 20.7917 81 22.8125 81 25.3125V48ZM74.8438 38.1875V32.8438C70.7396 32.8438 67.5833 33 65.375 33.3125C63.1667 33.625 61.6875 34.0625 60.9375 34.625C60.2083 35.1667 59.8438 35.9375 59.8438 36.9375C59.8438 36.9792 59.8438 37.0417 59.8438 37.125C59.8438 40.2917 60.1042 42.2604 60.625 43.0312C61.1458 43.8021 62.7396 44.1875 65.4062 44.1875C67.6771 44.1875 69.5208 43.9167 70.9375 43.375C72.3542 42.8333 73.3333 42.1458 73.875 41.3125C74.4375 40.4583 74.7604 39.4167 74.8438 38.1875ZM117.594 48H111.438V27.25C111.438 25.9167 111.427 24.8542 111.406 24.0625C111.406 23.25 111.365 22.4375 111.281 21.625C111.219 20.8125 111.146 20.2083 111.062 19.8125C110.979 19.3958 110.823 18.9896 110.594 18.5938C110.385 18.1771 110.167 17.8958 109.938 17.75C109.708 17.6042 109.375 17.4688 108.938 17.3438C108.5 17.1979 108.062 17.1146 107.625 17.0938C107.188 17.0729 106.604 17.0625 105.875 17.0625C104.292 17.0625 102.938 17.1562 101.812 17.3438C100.708 17.5104 99.8021 17.75 99.0938 18.0625C98.3854 18.375 97.8333 18.8125 97.4375 19.375C97.0625 19.9375 96.8021 20.5521 96.6562 21.2188C96.5104 21.8646 96.4375 22.6667 96.4375 23.625C96.4375 24.1667 96.4688 25.1146 96.5312 26.4688C96.5938 27.8021 96.625 28.8854 96.625 29.7188V48H90.4688V13.7188H96.0938L96.6875 17.5625C97.2292 15.8542 98.4271 14.625 100.281 13.875C102.135 13.125 104.344 12.75 106.906 12.75C108.115 12.75 109.188 12.8229 110.125 12.9688C111.062 13.1146 111.896 13.3646 112.625 13.7188C113.354 14.0521 113.979 14.4375 114.5 14.875C115.042 15.3125 115.49 15.8958 115.844 16.625C116.219 17.3333 116.521 18.0625 116.75 18.8125C116.979 19.5625 117.156 20.5 117.281 21.625C117.406 22.75 117.49 23.875 117.531 25C117.573 26.1042 117.594 27.4271 117.594 28.9688V48ZM133.562 48H127.406V13.7188H133.562V48ZM133.562 0.46875V5.875H127.406V0.46875H133.562ZM157.281 0.96875V5.4375C156.156 5.375 155.073 5.34375 154.031 5.34375C152.74 5.34375 151.958 5.40625 151.688 5.53125C151.229 5.76042 150.969 6.45833 150.906 7.625C150.885 8.0625 150.875 8.65625 150.875 9.40625C150.875 9.71875 150.875 10.3542 150.875 11.3125C150.896 12.25 150.906 13.0521 150.906 13.7188H157.094V17.25H150.906V48H144.75V17.25H140.719V13.7188H144.75C144.75 12.5729 144.75 11.6458 144.75 10.9375C144.771 10.2083 144.802 9.40625 144.844 8.53125C144.885 7.65625 144.938 6.95833 145 6.4375C145.062 5.91667 145.156 5.35417 145.281 4.75C145.427 4.14583 145.583 3.67708 145.75 3.34375C145.938 2.98958 146.167 2.625 146.438 2.25C146.708 1.875 147.01 1.59375 147.344 1.40625C147.698 1.21875 148.104 1.04167 148.562 0.875C149.021 0.708333 149.521 0.59375 150.062 0.53125C150.625 0.46875 151.26 0.4375 151.969 0.4375C153.656 0.4375 155.427 0.614583 157.281 0.96875ZM176.906 44.1562C179.865 44.0938 181.917 43.875 183.062 43.5C184.229 43.125 184.812 42.3854 184.812 41.2812C185.042 38.3021 185.156 34.8542 185.156 30.9375C185.156 29.6458 185.104 27.8021 185 25.4062C184.896 22.9896 184.844 21.1979 184.844 20.0312C184.844 19.6771 184.781 19.3542 184.656 19.0625C184.552 18.7708 184.365 18.5312 184.094 18.3438C183.844 18.1354 183.583 17.9583 183.312 17.8125C183.062 17.6667 182.698 17.5521 182.219 17.4688C181.76 17.3854 181.365 17.3125 181.031 17.25C180.719 17.1875 180.26 17.1458 179.656 17.125C179.073 17.1042 178.615 17.0938 178.281 17.0938C177.969 17.0938 177.5 17.0938 176.875 17.0938C176.25 17.0938 175.771 17.0938 175.438 17.0938C175.125 17.0938 174.667 17.1042 174.062 17.125C173.479 17.1458 173.021 17.1875 172.688 17.25C172.375 17.3125 171.979 17.3854 171.5 17.4688C171.042 17.5521 170.677 17.6667 170.406 17.8125C170.156 17.9583 169.896 18.1354 169.625 18.3438C169.375 18.5312 169.188 18.7708 169.062 19.0625C168.958 19.3542 168.906 19.6771 168.906 20.0312C168.906 21.1979 168.854 22.9896 168.75 25.4062C168.646 27.8021 168.594 29.6458 168.594 30.9375C168.594 34.8542 168.708 38.3021 168.938 41.2812C168.938 42.3854 169.542 43.1458 170.75 43.5625C171.979 43.9583 174.031 44.1562 176.906 44.1562ZM176.844 48.4688C174.531 48.4688 172.604 48.375 171.062 48.1875C169.521 48 168.188 47.5938 167.062 46.9688C165.958 46.3229 165.115 45.6458 164.531 44.9375C163.948 44.2083 163.49 43.0729 163.156 41.5312C162.823 39.9688 162.615 38.4271 162.531 36.9062C162.469 35.3854 162.438 33.2708 162.438 30.5625C162.438 28.5417 162.458 26.8542 162.5 25.5C162.562 24.1458 162.688 22.8229 162.875 21.5312C163.062 20.2188 163.292 19.1667 163.562 18.375C163.854 17.5625 164.26 16.8021 164.781 16.0938C165.323 15.3646 165.927 14.8125 166.594 14.4375C167.26 14.0625 168.104 13.7396 169.125 13.4688C170.167 13.1771 171.292 12.9896 172.5 12.9062C173.729 12.8021 175.188 12.75 176.875 12.75C178.562 12.75 180.01 12.8021 181.219 12.9062C182.448 12.9896 183.573 13.1771 184.594 13.4688C185.635 13.7396 186.49 14.0625 187.156 14.4375C187.823 14.8125 188.417 15.3646 188.938 16.0938C189.479 16.8021 189.885 17.5625 190.156 18.375C190.448 19.1667 190.688 20.2188 190.875 21.5312C191.062 22.8229 191.177 24.1458 191.219 25.5C191.281 26.8542 191.312 28.5417 191.312 30.5625C191.312 33.2708 191.271 35.3854 191.188 36.9062C191.125 38.4271 190.927 39.9688 190.594 41.5312C190.26 43.0729 189.792 44.2083 189.188 44.9375C188.604 45.6667 187.75 46.3438 186.625 46.9688C185.521 47.5938 184.198 48 182.656 48.1875C181.115 48.375 179.177 48.4688 176.844 48.4688ZM206.406 48H200.25V1.5625L206.406 1.0625V48ZM243.406 48H237.781L237.188 43.6875C235.917 46.875 232.594 48.4688 227.219 48.4688C225.781 48.4688 224.49 48.375 223.344 48.1875C222.219 48 221.24 47.6771 220.406 47.2188C219.594 46.7604 218.896 46.2917 218.312 45.8125C217.729 45.3125 217.24 44.6042 216.844 43.6875C216.469 42.75 216.167 41.9062 215.938 41.1562C215.729 40.3854 215.573 39.3229 215.469 37.9688C215.365 36.6146 215.302 35.4375 215.281 34.4375C215.26 33.4167 215.25 32.0417 215.25 30.3125C215.25 28.625 215.271 27.1667 215.312 25.9375C215.375 24.7083 215.479 23.4896 215.625 22.2812C215.792 21.0729 216 20.0625 216.25 19.25C216.521 18.4167 216.875 17.6146 217.312 16.8438C217.75 16.0729 218.271 15.4583 218.875 15C219.5 14.5208 220.24 14.1042 221.094 13.75C221.948 13.375 222.927 13.1146 224.031 12.9688C225.135 12.8229 226.385 12.75 227.781 12.75C230.469 12.75 232.552 13.1146 234.031 13.8438C235.531 14.5521 236.604 15.6875 237.25 17.25V0.53125L243.406 0.03125V48ZM237.25 40.0312V21.8125C237.25 20 236.688 18.7604 235.562 18.0938C234.438 17.4062 232.323 17.0625 229.219 17.0625C226.802 17.0625 225.01 17.2396 223.844 17.5938C222.885 17.8854 222.24 18.75 221.906 20.1875C221.573 21.6042 221.406 23.5208 221.406 25.9375C221.406 29.4583 221.469 34.3854 221.594 40.7188C221.698 42.0938 222.25 43.0208 223.25 43.5C224.271 43.9583 226.26 44.1875 229.219 44.1875C232.135 44.1875 234.167 43.8958 235.312 43.3125C236.479 42.7292 237.125 41.6354 237.25 40.0312ZM291.125 48H284.969V17.25H273.219V48H267.062V17.25H263.031V13.7188H267.062C267.062 12.5729 267.062 11.6458 267.062 10.9375C267.083 10.2083 267.115 9.40625 267.156 8.53125C267.198 7.65625 267.25 6.95833 267.312 6.4375C267.375 5.91667 267.469 5.35417 267.594 4.75C267.74 4.14583 267.896 3.67708 268.062 3.34375C268.25 2.98958 268.479 2.625 268.75 2.25C269.021 1.875 269.323 1.59375 269.656 1.40625C270.01 1.21875 270.417 1.04167 270.875 0.875C271.333 0.708333 271.833 0.59375 272.375 0.53125C272.938 0.46875 273.573 0.4375 274.281 0.4375C275.969 0.4375 277.74 0.614583 279.594 0.96875V5.4375C278.469 5.375 277.385 5.34375 276.344 5.34375C275.052 5.34375 274.271 5.40625 274 5.53125C273.542 5.76042 273.281 6.45833 273.219 7.625C273.198 8.0625 273.188 8.65625 273.188 9.40625C273.188 9.71875 273.188 10.3542 273.188 11.3125C273.208 12.25 273.219 13.0521 273.219 13.7188H291.125V48ZM291.125 0.46875V5.875H284.969V0.46875H291.125ZM331.031 48H324.875V27.25C324.875 25.9167 324.865 24.8542 324.844 24.0625C324.844 23.25 324.802 22.4375 324.719 21.625C324.656 20.8125 324.583 20.2083 324.5 19.8125C324.417 19.3958 324.26 18.9896 324.031 18.5938C323.823 18.1771 323.604 17.8958 323.375 17.75C323.146 17.6042 322.812 17.4688 322.375 17.3438C321.938 17.1979 321.5 17.1146 321.062 17.0938C320.625 17.0729 320.042 17.0625 319.312 17.0625C317.729 17.0625 316.375 17.1562 315.25 17.3438C314.146 17.5104 313.24 17.75 312.531 18.0625C311.823 18.375 311.271 18.8125 310.875 19.375C310.5 19.9375 310.24 20.5521 310.094 21.2188C309.948 21.8646 309.875 22.6667 309.875 23.625C309.875 24.1667 309.906 25.1146 309.969 26.4688C310.031 27.8021 310.062 28.8854 310.062 29.7188V48H303.906V13.7188H309.531L310.125 17.5625C310.667 15.8542 311.865 14.625 313.719 13.875C315.573 13.125 317.781 12.75 320.344 12.75C321.552 12.75 322.625 12.8229 323.562 12.9688C324.5 13.1146 325.333 13.3646 326.062 13.7188C326.792 14.0521 327.417 14.4375 327.938 14.875C328.479 15.3125 328.927 15.8958 329.281 16.625C329.656 17.3333 329.958 18.0625 330.188 18.8125C330.417 19.5625 330.594 20.5 330.719 21.625C330.844 22.75 330.927 23.875 330.969 25C331.01 26.1042 331.031 27.4271 331.031 28.9688V48ZM365.75 48H360.875L359.875 43.0938C359.25 45.2396 358.115 46.6771 356.469 47.4062C354.844 48.1146 352.458 48.4688 349.312 48.4688C347.229 48.4688 345.521 48.2708 344.188 47.875C342.854 47.4583 341.792 46.7708 341 45.8125C340.208 44.8542 339.656 43.6875 339.344 42.3125C339.052 40.9167 338.906 39.125 338.906 36.9375C338.906 35.9583 339.073 35.0833 339.406 34.3125C339.76 33.5417 340.229 32.8854 340.812 32.3438C341.417 31.8021 342.208 31.3333 343.188 30.9375C344.188 30.5417 345.219 30.2292 346.281 30C347.344 29.7708 348.625 29.5938 350.125 29.4688C351.646 29.3229 353.125 29.2292 354.562 29.1875C356 29.1458 357.677 29.125 359.594 29.125V19.8438C359.594 18.7812 359.094 18.0521 358.094 17.6562C357.094 17.2396 355.312 17.0312 352.75 17.0312C350.958 17.0312 349.615 17.0729 348.719 17.1562C347.823 17.2396 347.135 17.4896 346.656 17.9062C346.198 18.3021 345.927 18.6979 345.844 19.0938C345.781 19.4896 345.74 20.2292 345.719 21.3125C345.698 21.7083 345.688 22.0208 345.688 22.25L340.906 22.0625C340.865 21.7292 340.844 21.2396 340.844 20.5938C340.844 19.1979 341.042 18.0208 341.438 17.0625C341.854 16.0833 342.385 15.3229 343.031 14.7812C343.677 14.2188 344.562 13.7812 345.688 13.4688C346.812 13.1562 347.927 12.9583 349.031 12.875C350.135 12.7917 351.51 12.75 353.156 12.75C355.656 12.75 357.688 12.9479 359.25 13.3438C360.812 13.7188 362.094 14.4062 363.094 15.4062C364.094 16.4062 364.781 17.6875 365.156 19.25C365.552 20.7917 365.75 22.8125 365.75 25.3125V48ZM359.594 38.1875V32.8438C355.49 32.8438 352.333 33 350.125 33.3125C347.917 33.625 346.438 34.0625 345.688 34.625C344.958 35.1667 344.594 35.9375 344.594 36.9375C344.594 36.9792 344.594 37.0417 344.594 37.125C344.594 40.2917 344.854 42.2604 345.375 43.0312C345.896 43.8021 347.49 44.1875 350.156 44.1875C352.427 44.1875 354.271 43.9167 355.688 43.375C357.104 42.8333 358.083 42.1458 358.625 41.3125C359.188 40.4583 359.51 39.4167 359.594 38.1875ZM402.344 48H396.188V27.25C396.188 25.9167 396.177 24.8542 396.156 24.0625C396.156 23.25 396.115 22.4375 396.031 21.625C395.969 20.8125 395.896 20.2083 395.812 19.8125C395.729 19.3958 395.573 18.9896 395.344 18.5938C395.135 18.1771 394.917 17.8958 394.688 17.75C394.458 17.6042 394.125 17.4688 393.688 17.3438C393.25 17.1979 392.812 17.1146 392.375 17.0938C391.938 17.0729 391.354 17.0625 390.625 17.0625C389.042 17.0625 387.688 17.1562 386.562 17.3438C385.458 17.5104 384.552 17.75 383.844 18.0625C383.135 18.375 382.583 18.8125 382.188 19.375C381.812 19.9375 381.552 20.5521 381.406 21.2188C381.26 21.8646 381.188 22.6667 381.188 23.625C381.188 24.1667 381.219 25.1146 381.281 26.4688C381.344 27.8021 381.375 28.8854 381.375 29.7188V48H375.219V13.7188H380.844L381.438 17.5625C381.979 15.8542 383.177 14.625 385.031 13.875C386.885 13.125 389.094 12.75 391.656 12.75C392.865 12.75 393.938 12.8229 394.875 12.9688C395.812 13.1146 396.646 13.3646 397.375 13.7188C398.104 14.0521 398.729 14.4375 399.25 14.875C399.792 15.3125 400.24 15.8958 400.594 16.625C400.969 17.3333 401.271 18.0625 401.5 18.8125C401.729 19.5625 401.906 20.5 402.031 21.625C402.156 22.75 402.24 23.875 402.281 25C402.323 26.1042 402.344 27.4271 402.344 28.9688V48ZM437.844 23.5938L432.781 24.4375L432.125 20.0938C431.958 19.0938 431.76 18.4583 431.531 18.1875C430.99 17.5625 429.49 17.2083 427.031 17.125C426.448 17.1042 425.802 17.0938 425.094 17.0938C422.26 17.0938 420.406 17.25 419.531 17.5625C418.573 17.7292 417.875 18.6771 417.438 20.4062C417 22.1354 416.781 24.25 416.781 26.75L416.812 32.1562C416.812 32.9062 416.812 33.9375 416.812 35.25C416.812 36.9583 416.812 38.1667 416.812 38.875C416.812 39.5625 416.906 40.3542 417.094 41.25C417.281 42.125 417.49 42.6771 417.719 42.9062C417.969 43.1146 418.427 43.3646 419.094 43.6562C419.76 43.9479 420.469 44.1042 421.219 44.125C421.99 44.1458 423.094 44.1562 424.531 44.1562C425.656 44.1562 426.625 44.1146 427.438 44.0312C428.271 43.9479 428.969 43.8542 429.531 43.75C430.115 43.625 430.583 43.4271 430.938 43.1562C431.312 42.8646 431.594 42.6042 431.781 42.375C431.99 42.1458 432.146 41.7917 432.25 41.3125C432.354 40.8125 432.417 40.3854 432.438 40.0312C432.479 39.6771 432.521 39.1458 432.562 38.4375C432.604 37.7083 432.656 37.0938 432.719 36.5938L437.844 37.4688C437.719 39.0938 437.573 40.3958 437.406 41.375C437.26 42.3542 437 43.3021 436.625 44.2188C436.271 45.1354 435.812 45.8333 435.25 46.3125C434.708 46.7708 433.948 47.1875 432.969 47.5625C432.01 47.9375 430.885 48.1771 429.594 48.2812C428.323 48.4062 426.729 48.4688 424.812 48.4688C423.438 48.4688 422.198 48.4271 421.094 48.3438C420.01 48.2604 419.021 48.0938 418.125 47.8438C417.229 47.5729 416.448 47.3229 415.781 47.0938C415.115 46.8438 414.521 46.4167 414 45.8125C413.5 45.2083 413.073 44.6875 412.719 44.25C412.385 43.8125 412.104 43.1042 411.875 42.125C411.646 41.1458 411.469 40.3125 411.344 39.625C411.219 38.9375 411.125 37.8958 411.062 36.5C411 35.0833 410.958 33.8854 410.938 32.9062C410.938 31.9271 410.938 30.5104 410.938 28.6562C410.938 26.9896 410.969 25.5521 411.031 24.3438C411.094 23.1146 411.219 21.9479 411.406 20.8438C411.594 19.7188 411.833 18.7917 412.125 18.0625C412.438 17.3125 412.844 16.6146 413.344 15.9688C413.865 15.3229 414.448 14.8125 415.094 14.4375C415.76 14.0625 416.573 13.7396 417.531 13.4688C418.51 13.1979 419.573 13.0104 420.719 12.9062C421.885 12.8021 423.24 12.75 424.781 12.75C426.76 12.75 428.417 12.8542 429.75 13.0625C431.104 13.25 432.302 13.5729 433.344 14.0312C434.385 14.4896 435.208 15.1458 435.812 16C436.417 16.8333 436.885 17.8646 437.219 19.0938C437.552 20.3021 437.76 21.8021 437.844 23.5938ZM472.375 30.375C469.875 30.625 468.323 30.7708 467.719 30.8125H450.688C450.708 33.8333 450.792 37.1458 450.938 40.75C451.042 42.1458 451.635 43.0729 452.719 43.5312C453.823 43.9688 455.958 44.1875 459.125 44.1875C460.312 44.1875 461.333 44.1458 462.188 44.0625C463.042 43.9583 463.729 43.7917 464.25 43.5625C464.792 43.3125 465.208 43.0833 465.5 42.875C465.812 42.6458 466.042 42.3021 466.188 41.8438C466.333 41.3646 466.427 40.9688 466.469 40.6562C466.51 40.3229 466.552 39.8333 466.594 39.1875C466.635 38.5208 466.688 37.9792 466.75 37.5625L471.531 38.4375C471.49 39.8958 471.385 41.1354 471.219 42.1562C471.052 43.1562 470.771 44.0417 470.375 44.8125C469.979 45.5833 469.51 46.1979 468.969 46.6562C468.427 47.0938 467.698 47.4583 466.781 47.75C465.865 48.0417 464.854 48.2292 463.75 48.3125C462.646 48.4167 461.281 48.4688 459.656 48.4688C457.573 48.4688 455.76 48.3438 454.219 48.0938C452.677 47.8646 451.354 47.5729 450.25 47.2188C449.167 46.8646 448.271 46.2917 447.562 45.5C446.854 44.6875 446.292 43.9167 445.875 43.1875C445.479 42.4583 445.188 41.3854 445 39.9688C444.812 38.5521 444.688 37.2708 444.625 36.125C444.583 34.9583 444.562 33.3542 444.562 31.3125C444.562 28.4375 444.594 26.1979 444.656 24.5938C444.74 22.9896 444.948 21.3854 445.281 19.7812C445.615 18.1562 446.062 16.9792 446.625 16.25C447.188 15.5208 448.021 14.8438 449.125 14.2188C450.229 13.5938 451.531 13.1979 453.031 13.0312C454.531 12.8438 456.438 12.75 458.75 12.75C460.354 12.75 461.74 12.8021 462.906 12.9062C464.073 12.9896 465.146 13.1771 466.125 13.4688C467.104 13.7604 467.906 14.0938 468.531 14.4688C469.177 14.8438 469.74 15.3958 470.219 16.125C470.719 16.8542 471.094 17.6146 471.344 18.4062C471.615 19.1771 471.833 20.2083 472 21.5C472.167 22.7917 472.271 24.1042 472.312 25.4375C472.354 26.75 472.375 28.3958 472.375 30.375ZM450.719 27.5312H466.219C466.177 24.8646 466.073 22.4271 465.906 20.2188C465.823 18.9479 465.271 18.1042 464.25 17.6875C463.25 17.25 461.406 17.0312 458.719 17.0312C455.74 17.0312 453.854 17.1979 453.062 17.5312C452.708 17.6354 452.396 17.8229 452.125 18.0938C451.875 18.3438 451.667 18.7083 451.5 19.1875C451.333 19.6667 451.198 20.1146 451.094 20.5312C451.01 20.9479 450.938 21.5312 450.875 22.2812C450.833 23.0104 450.802 23.5833 450.781 24C450.76 24.3958 450.74 25.0104 450.719 25.8438C450.719 26.6771 450.719 27.2396 450.719 27.5312Z" fill="black"/>
</svg>
